<?xml version="1.0" encoding="UTF-8" standalone="no"?>
<!-- Created with Inkscape (http://www.inkscape.org/) -->

<svg
   width="49.739021mm"
   height="63.146378mm"
   viewBox="0 0 49.739021 63.146378"
   version="1.1"
   id="svg5"
   xml:space="preserve"
   inkscape:export-filename="logo.svg"
   inkscape:export-xdpi="96"
   inkscape:export-ydpi="96"
   xmlns:inkscape="http://www.inkscape.org/namespaces/inkscape"
   xmlns:sodipodi="http://sodipodi.sourceforge.net/DTD/sodipodi-0.dtd"
   xmlns:xlink="http://www.w3.org/1999/xlink"
   xmlns="http://www.w3.org/2000/svg"
   xmlns:svg="http://www.w3.org/2000/svg"><sodipodi:namedview
     id="namedview7"
     pagecolor="#ffffff"
     bordercolor="#000000"
     borderopacity="0.25"
     inkscape:showpageshadow="2"
     inkscape:pageopacity="0.0"
     inkscape:pagecheckerboard="0"
     inkscape:deskcolor="#d1d1d1"
     inkscape:document-units="mm"
     showgrid="false" /><defs
     id="defs2"><linearGradient
       inkscape:collect="always"
       id="linearGradient5875"><stop
         style="stop-color:#26c39e;stop-opacity:1;"
         offset="0"
         id="stop5871" /><stop
         style="stop-color:#55ead7;stop-opacity:1;"
         offset="0.5"
         id="stop11744" /><stop
         style="stop-color:#19807e;stop-opacity:0;"
         offset="1"
         id="stop5873" /></linearGradient><linearGradient
       inkscape:collect="always"
       id="linearGradient1520"><stop
         style="stop-color:#2ff2b5;stop-opacity:1;"
         offset="0"
         id="stop1516" /><stop
         style="stop-color:#136471;stop-opacity:1;"
         offset="1"
         id="stop1518" /></linearGradient><linearGradient
       inkscape:collect="always"
       xlink:href="#linearGradient1520"
       id="linearGradient15218"
       gradientUnits="userSpaceOnUse"
       gradientTransform="translate(0,-13.713887)"
       x1="191.92139"
       y1="97.213982"
       x2="191.92139"
       y2="227.21379" /><linearGradient
       inkscape:collect="always"
       xlink:href="#linearGradient5875"
       id="linearGradient15220"
       gradientUnits="userSpaceOnUse"
       gradientTransform="translate(0,-22.361804)"
       x1="178.22679"
       y1="143.08693"
       x2="211.9212"
       y2="196.56372" /></defs><g
     inkscape:label="Layer 1"
     inkscape:groupmode="layer"
     id="layer1"
     transform="translate(-101.70542,-205.13673)"><g
       id="g15216"
       transform="matrix(0.45317446,-0.26164039,0.26164039,0.45317446,0.74749572,219.62783)"><path
         id="path15212"
         style="opacity:1;fill:url(#linearGradient15218);fill-opacity:1;stroke-width:2.03752;stroke-linecap:round"
         d="m 191.92139,83.500093 c -16.61999,0 -30.00024,13.380251 -30.00024,30.000237 v 69.99986 c 0,16.61999 13.38025,29.99972 30.00024,29.99972 16.61999,0 29.99972,-13.37973 29.99972,-29.99972 v -69.99986 c 0,-16.619986 -13.37973,-30.000237 -29.99972,-30.000237 z m 0,19.999817 c 5.54,0 9.99991,5.04009 9.99991,11.3006 v 67.39899 c 0,6.26051 -4.45991,11.3006 -9.99991,11.3006 -5.54,0 -10.00043,-5.04009 -10.00043,-11.3006 v -67.39899 c 0,-6.26051 4.46043,-11.3006 10.00043,-11.3006 z" /><path
         style="opacity:0.768311;fill:url(#linearGradient15220);fill-opacity:1;stroke-width:1;stroke-linecap:round"
         d="m 181.92096,120.7316 c 0,13.93591 11.92164,16.14759 20.00034,19.12048 8.0787,2.9729 19.99981,8.85472 19.99981,17.14705 v 17.85314 l -19.99981,-1.30069 c 0,0 0,6.19126 0,0 0,-6.19127 -9.32675,-9.817 -20.00034,-15.09717 -9.20963,-4.55596 -19.99981,-8.9767 -19.99981,-28.41348 v -9.34417 l 19.99981,0.0348 z"
         id="path15214"
         sodipodi:nodetypes="sssccsssccs" /></g></g></svg>
