<?xml version="1.0" encoding="UTF-8" standalone="no"?>
<!-- Created with Inkscape (http://www.inkscape.org/) -->

<svg
   width="210mm"
   height="209.64211mm"
   viewBox="0 0 210 209.64211"
   version="1.1"
   id="svg5"
   xml:space="preserve"
   inkscape:export-filename="logo.svg"
   inkscape:export-xdpi="96"
   inkscape:export-ydpi="96"
   inkscape:version="1.2.2 (b0a8486541, 2022-12-01)"
   sodipodi:docname="logo-design.svg"
   xmlns:inkscape="http://www.inkscape.org/namespaces/inkscape"
   xmlns:sodipodi="http://sodipodi.sourceforge.net/DTD/sodipodi-0.dtd"
   xmlns:xlink="http://www.w3.org/1999/xlink"
   xmlns="http://www.w3.org/2000/svg"
   xmlns:svg="http://www.w3.org/2000/svg"><sodipodi:namedview
     id="namedview7"
     pagecolor="#ffffff"
     bordercolor="#000000"
     borderopacity="0.25"
     inkscape:showpageshadow="2"
     inkscape:pageopacity="0.0"
     inkscape:pagecheckerboard="0"
     inkscape:deskcolor="#d1d1d1"
     inkscape:document-units="mm"
     showgrid="false"
     inkscape:zoom="0.65032267"
     inkscape:cx="238.34322"
     inkscape:cy="498.21422"
     inkscape:window-width="1584"
     inkscape:window-height="848"
     inkscape:window-x="0"
     inkscape:window-y="0"
     inkscape:window-maximized="1"
     inkscape:current-layer="text13667" /><defs
     id="defs2"><linearGradient
       inkscape:collect="always"
       id="linearGradient13723"><stop
         style="stop-color:#2eecb2;stop-opacity:1;"
         offset="0"
         id="stop13719" /><stop
         style="stop-color:#146a74;stop-opacity:1;"
         offset="1"
         id="stop13721" /></linearGradient><linearGradient
       inkscape:collect="always"
       id="linearGradient5875"><stop
         style="stop-color:#26c39e;stop-opacity:1;"
         offset="0"
         id="stop5871" /><stop
         style="stop-color:#55ead7;stop-opacity:1;"
         offset="0.5"
         id="stop11744" /><stop
         style="stop-color:#19807e;stop-opacity:0;"
         offset="1"
         id="stop5873" /></linearGradient><linearGradient
       inkscape:collect="always"
       id="linearGradient1520"><stop
         style="stop-color:#2ff2b5;stop-opacity:1;"
         offset="0"
         id="stop1516" /><stop
         style="stop-color:#136471;stop-opacity:1;"
         offset="1"
         id="stop1518" /></linearGradient><linearGradient
       inkscape:collect="always"
       xlink:href="#linearGradient1520"
       id="linearGradient1522"
       x1="191.92139"
       y1="97.213982"
       x2="191.92139"
       y2="227.21379"
       gradientUnits="userSpaceOnUse"
       gradientTransform="translate(0,-13.713887)" /><linearGradient
       inkscape:collect="always"
       xlink:href="#linearGradient5875"
       id="linearGradient5877"
       x1="178.22679"
       y1="143.08693"
       x2="211.9212"
       y2="196.56372"
       gradientUnits="userSpaceOnUse"
       gradientTransform="translate(0,-22.361804)" /><linearGradient
       inkscape:collect="always"
       xlink:href="#linearGradient13723"
       id="linearGradient13725"
       x1="39.214893"
       y1="104.07987"
       x2="96.604706"
       y2="104.07987"
       gradientUnits="userSpaceOnUse"
       gradientTransform="matrix(2.4596567,0,0,2.4596567,-40.459855,-107.50077)" /><linearGradient
       inkscape:collect="always"
       xlink:href="#linearGradient1520"
       id="linearGradient15218"
       gradientUnits="userSpaceOnUse"
       gradientTransform="translate(-13.682569,-21.613522)"
       x1="191.92139"
       y1="97.213982"
       x2="191.92139"
       y2="227.21379" /><linearGradient
       inkscape:collect="always"
       xlink:href="#linearGradient5875"
       id="linearGradient15220"
       gradientUnits="userSpaceOnUse"
       gradientTransform="translate(-13.682593,-24.36522)"
       x1="178.22679"
       y1="143.08693"
       x2="211.9212"
       y2="196.56372" /></defs><g
     inkscape:label="Layer 1"
     inkscape:groupmode="layer"
     id="layer1"><g
       id="g15305"
       transform="translate(-1.9e-6,-2.319164)"><g
         aria-label="HireWise"
         id="text13667"
         style="font-size:30.3699px;font-family:Montserrat;-inkscape-font-specification:Montserrat;text-align:center;text-anchor:middle;fill:url(#linearGradient13725);stroke-width:2.45966;stroke-linecap:round"><g
           id="g447"
           inkscape:export-filename="./logo.svg"
           inkscape:export-xdpi="96"
           inkscape:export-ydpi="96"><g
             id="g13611"
             transform="matrix(0.2890525,-0.16688453,0.16688453,0.2890525,-51.549536,137.60439)"><path
               id="rect1434"
               style="opacity:1;fill:url(#linearGradient1522);fill-opacity:1;stroke-width:2.03752;stroke-linecap:round"
               d="m 191.92139,83.500093 c -16.61999,0 -30.00024,13.380251 -30.00024,30.000237 v 69.99986 c 0,16.61999 13.38025,29.99972 30.00024,29.99972 16.61999,0 29.99972,-13.37973 29.99972,-29.99972 v -69.99986 c 0,-16.619986 -13.37973,-30.000237 -29.99972,-30.000237 z m 0,19.999817 c 5.54,0 9.99991,5.04009 9.99991,11.3006 v 67.39899 c 0,6.26051 -4.45991,11.3006 -9.99991,11.3006 -5.54,0 -10.00043,-5.04009 -10.00043,-11.3006 v -67.39899 c 0,-6.26051 4.46043,-11.3006 10.00043,-11.3006 z" /><path
               style="opacity:0.768311;fill:url(#linearGradient5877);fill-opacity:1;stroke-width:1;stroke-linecap:round"
               d="m 181.92096,120.7316 c 0,13.93591 11.92164,16.14759 20.00034,19.12048 8.0787,2.9729 19.99981,8.85472 19.99981,17.14705 v 17.85314 l -19.99981,-1.30069 c 0,0 0,6.19126 0,0 0,-6.19127 -9.32675,-9.817 -20.00034,-15.09717 -9.20963,-4.55596 -19.99981,-8.9767 -19.99981,-28.41348 v -9.34417 l 19.99981,0.0348 z"
               id="path1491"
               sodipodi:nodetypes="sssccsssccs" /></g><path
             d="m 70.572808,147.45225 v -8.38209 h 4.919923 v 21.25893 h -4.919923 v -8.71616 h -9.657629 v 8.71616 h -4.919923 v -21.25893 h 4.919923 v 8.38209 z"
             style="font-weight:bold"
             id="path334" /><path
             d="m 84.937788,160.32909 h -4.737705 v -16.33901 h 4.737705 z m -2.368853,-18.61675 q -1.305905,0 -2.125892,-0.75925 -0.819988,-0.75925 -0.819988,-1.88293 0,-1.12369 0.819988,-1.88294 0.819987,-0.75924 2.125892,-0.75924 1.305906,0 2.125893,0.72887 0.819988,0.72888 0.819988,1.8222 0,1.18442 -0.819988,1.97404 -0.819987,0.75925 -2.125893,0.75925 z"
             style="font-weight:bold"
             id="path336" /><path
             d="m 93.866554,146.14634 q 0.850357,-1.18442 2.277742,-1.79182 1.457756,-0.6074 3.340689,-0.6074 v 4.37327 q -0.789617,-0.0607 -1.062946,-0.0607 -2.034783,0 -3.18884,1.15405 -1.154056,1.12369 -1.154056,3.40143 v 7.71396 h -4.737704 v -16.33901 h 4.525115 z"
             style="font-weight:bold"
             id="path338" /><path
             d="m 118.16245,152.22032 q 0,0.0911 -0.0911,1.27554 h -12.36055 q 0.33407,1.51849 1.57923,2.39922 1.24517,0.88073 3.09773,0.88073 1.27554,0 2.24737,-0.36444 1.00221,-0.39481 1.85257,-1.2148 l 2.5207,2.73329 q -2.30811,2.64219 -6.74212,2.64219 -2.76366,0 -4.88955,-1.06295 -2.12589,-1.09332 -3.27995,-3.00662 -1.15406,-1.9133 -1.15406,-4.3429 0,-2.39922 1.12369,-4.31252 1.15406,-1.94368 3.1281,-3.00662 2.00441,-1.09332 4.46437,-1.09332 2.39923,0 4.3429,1.03258 1.94367,1.03257 3.03699,2.97625 1.12369,1.9133 1.12369,4.46437 z m -8.47321,-4.88955 q -1.6096,0 -2.70292,0.9111 -1.09331,0.91109 -1.33627,2.49033 h 8.04802 q -0.24296,-1.54887 -1.33627,-2.45996 -1.09332,-0.94147 -2.67256,-0.94147 z"
             style="font-weight:bold"
             id="path340" /><path
             d="m 143.52131,154.13363 4.9503,-15.06347 h 4.70733 l -6.95471,21.25893 h -5.28436 l -4.67696,-14.39534 -4.82882,14.39534 h -5.25399 l -6.98508,-21.25893 h 5.10214 l 4.79845,14.94199 5.01103,-14.94199 h 4.55549 z"
             style="font-weight:bold"
             id="path342" /><path
             d="m 160.61959,160.32909 h -4.7377 v -16.33901 h 4.7377 z m -2.36885,-18.61675 q -1.3059,0 -2.12589,-0.75925 -0.81999,-0.75925 -0.81999,-1.88293 0,-1.12369 0.81999,-1.88294 0.81999,-0.75924 2.12589,-0.75924 1.30591,0 2.1259,0.72887 0.81998,0.72888 0.81998,1.8222 0,1.18442 -0.81998,1.97404 -0.81999,0.75925 -2.1259,0.75925 z"
             style="font-weight:bold"
             id="path344" /><path
             d="m 170.5202,160.57205 q -2.03478,0 -3.97846,-0.48592 -1.94367,-0.51629 -3.09773,-1.27554 l 1.57924,-3.40143 q 1.09331,0.69851 2.64218,1.15406 1.54886,0.42518 3.03699,0.42518 3.00662,0 3.00662,-1.48813 0,-0.69851 -0.81999,-1.0022 -0.81999,-0.3037 -2.5207,-0.51629 -2.00441,-0.3037 -3.31032,-0.69851 -1.30591,-0.39481 -2.27774,-1.39702 -0.94147,-1.0022 -0.94147,-2.85477 0,-1.54886 0.88073,-2.73329 0.9111,-1.21479 2.61181,-1.88293 1.73108,-0.66814 4.06957,-0.66814 1.73108,0 3.43179,0.39481 1.73109,0.36444 2.85478,1.03258 l -1.57924,3.37106 q -2.15626,-1.2148 -4.70733,-1.2148 -1.5185,0 -2.27775,0.42518 -0.75924,0.42518 -0.75924,1.09331 0,0.75925 0.81998,1.06295 0.81999,0.3037 2.61181,0.57703 2.00442,0.33407 3.27995,0.72888 1.27554,0.36444 2.21701,1.36664 0.94146,1.00221 0.94146,2.79403 0,1.5185 -0.91109,2.70292 -0.9111,1.18443 -2.67255,1.85257 -1.73109,0.63777 -4.13031,0.63777 z"
             style="font-weight:bold"
             id="path346" /><path
             d="m 197.1546,152.22032 q 0,0.0911 -0.0911,1.27554 h -12.36055 q 0.33407,1.51849 1.57924,2.39922 1.24517,0.88073 3.09773,0.88073 1.27553,0 2.24737,-0.36444 1.00221,-0.39481 1.85257,-1.2148 l 2.5207,2.73329 q -2.30812,2.64219 -6.74212,2.64219 -2.76366,0 -4.88955,-1.06295 -2.1259,-1.09332 -3.27995,-3.00662 -1.15406,-1.9133 -1.15406,-4.3429 0,-2.39922 1.12369,-4.31252 1.15405,-1.94368 3.1281,-3.00662 2.00441,-1.09332 4.46437,-1.09332 2.39922,0 4.3429,1.03258 1.94367,1.03257 3.03699,2.97625 1.12368,1.9133 1.12368,4.46437 z m -8.4732,-4.88955 q -1.6096,0 -2.70292,0.9111 -1.09332,0.91109 -1.33628,2.49033 h 8.04803 q -0.24296,-1.54887 -1.33628,-2.45996 -1.09331,-0.94147 -2.67255,-0.94147 z"
             style="font-weight:bold"
             id="path348" /></g></g></g><g
       id="g15216"
       transform="matrix(0.45317446,-0.26164039,0.26164039,0.45317446,-14.503934,57.813762)"
       inkscape:export-filename="./icon.svg"
       inkscape:export-xdpi="96"
       inkscape:export-ydpi="96"><path
         id="path15212"
         style="opacity:1;fill:url(#linearGradient15218);fill-opacity:1;stroke-width:2.03752;stroke-linecap:round"
         d="m 178.23882,75.600458 c -16.61999,0 -30.00024,13.380251 -30.00024,30.000242 v 69.99986 c 0,16.61999 13.38025,29.99972 30.00024,29.99972 16.61999,0 29.99972,-13.37973 29.99972,-29.99972 V 105.6007 c 0,-16.619991 -13.37973,-30.000242 -29.99972,-30.000242 z m 0,19.999817 c 5.54,0 9.99991,5.040095 9.99991,11.300605 v 67.39899 c 0,6.26051 -4.45991,11.3006 -9.99991,11.3006 -5.54,0 -10.00043,-5.04009 -10.00043,-11.3006 v -67.39899 c 0,-6.26051 4.46043,-11.300605 10.00043,-11.300605 z" /><path
         style="opacity:0.768311;fill:url(#linearGradient15220);fill-opacity:1;stroke-width:1;stroke-linecap:round"
         d="m 168.23839,118.72822 c 0,13.93591 11.92164,16.14759 20.00034,19.12048 8.0787,2.9729 19.99981,8.85472 19.99981,17.14705 v 17.85314 l -19.99981,-1.30069 c 0,0 0,6.19126 0,0 0,-6.19127 -9.32675,-9.817 -20.00034,-15.09717 -9.20963,-4.55596 -19.99981,-8.9767 -19.99981,-28.41348 v -9.34417 l 19.99981,0.0348 z"
         id="path15214"
         sodipodi:nodetypes="sssccsssccs" /></g></g></svg>
