<?xml version="1.0" encoding="UTF-8" standalone="no"?>
<svg
   width="2279.4102"
   height="620.62921"
   viewBox="0 0 175.74799 47.852002"
   version="1.1"
   id="svg12"
   sodipodi:docname="12.svg"
   inkscape:version="1.2.2 (b0a8486541, 2022-12-01)"
   xmlns:inkscape="http://www.inkscape.org/namespaces/inkscape"
   xmlns:sodipodi="http://sodipodi.sourceforge.net/DTD/sodipodi-0.dtd"
   xmlns="http://www.w3.org/2000/svg"
   xmlns:svg="http://www.w3.org/2000/svg">
  <defs
     id="defs16" />
  <sodipodi:namedview
     id="namedview14"
     pagecolor="#ffffff"
     bordercolor="#000000"
     borderopacity="0.25"
     inkscape:showpageshadow="2"
     inkscape:pageopacity="0.0"
     inkscape:pagecheckerboard="0"
     inkscape:deskcolor="#d1d1d1"
     showgrid="false"
     inkscape:zoom="0.073"
     inkscape:cx="253.42466"
     inkscape:cy="575.34247"
     inkscape:window-width="787"
     inkscape:window-height="848"
     inkscape:window-x="0"
     inkscape:window-y="0"
     inkscape:window-maximized="1"
     inkscape:current-layer="g10" />
  <g
     fill-rule="evenodd"
     clip-rule="evenodd"
     id="g10"
     transform="translate(-8.504,-72.453)">
    <g
       id="g302">
      <path
         fill="#2d509f"
         d="M 116.086,82.314 H 92.913 v 7.557 h 7.745 v 16.168 h 7.555 V 89.871 h 7.873 z m 22.643,23.663 -7.303,-23.663 h -9.196 l -7.302,23.663 h 7.556 l 4.344,-16.825 4.346,16.825 z m 23.134,-23.663 h -23.172 v 7.557 h 7.745 v 16.168 h 7.554 V 89.871 h 7.873 z m 22.389,23.663 -7.305,-23.663 h -9.193 l -7.305,23.663 h 7.559 l 4.344,-16.825 4.343,16.825 z m -147.68,1.711 c 1.646,-6.992 2.867,-13.817 2.867,-13.817 0,0 0.614,-2.251 -0.614,-3.786 -1.228,-1.535 -5.014,-1.023 -5.014,-1.023 0,0 -5.881,0.07 -11.875,0.792 -5.338,0.644 -10.785,1.703 -12.793,2.11 A 15.878,15.878 0 0 0 8.504,96.38 c 0,10.535 10.528,19.473 25.144,22.666 0.767,-2.788 1.92,-7.099 2.924,-11.358 z"
         id="path4" />
      <path
         d="m 47.436,103.287 c -0.07,-8.473 0.167,-16.375 0.167,-16.375 0,0 -0.272,-1.19 0.487,-1.772 0.777,-0.595 2.583,-0.581 2.583,-0.581 0,0 7.006,0.197 14.857,1.204 5.732,0.737 11.93,1.919 14.729,2.478 C 75.113,79.033 61.485,72.453 45.48,72.453 c -16.068,0 -29.735,6.633 -34.835,15.895 2.454,-0.494 9.125,-1.795 15.268,-2.584 7.851,-1.007 14.855,-1.204 14.855,-1.204 0,0 1.808,-0.014 2.584,0.581 0.759,0.582 0.487,1.772 0.487,1.772 0,0 0.238,7.902 0.167,16.375 -0.056,6.494 -0.256,13.305 -0.378,16.986 0.613,0.02 1.229,0.031 1.851,0.031 0.784,0 1.561,-0.021 2.333,-0.053 -0.121,-3.688 -0.32,-10.484 -0.376,-16.965 z"
         fill="#2d509f"
         id="path6" />
      <path
         d="m 69.508,89.853 c -5.994,-0.722 -11.876,-0.792 -11.876,-0.792 0,0 -3.785,-0.511 -5.015,1.023 -1.227,1.535 -0.612,3.786 -0.612,3.786 0,0 1.22,6.825 2.866,13.817 0.991,4.209 2.129,8.467 2.896,11.258 14.38,-3.277 24.689,-12.143 24.689,-22.566 0,-1.546 -0.235,-3.054 -0.667,-4.518 -2.318,-0.463 -7.347,-1.413 -12.281,-2.008 z"
         fill="#2d509f"
         id="path8" />
    </g>
  </g>
</svg>
