<?xml version="1.0" encoding="UTF-8" standalone="no"?>
<svg
   width="2426.4844"
   height="552.55835"
   viewBox="0 0 187.08777 42.603575"
   version="1.1"
   id="svg8"
   sodipodi:docname="13.svg"
   inkscape:version="1.2.2 (b0a8486541, 2022-12-01)"
   xmlns:inkscape="http://www.inkscape.org/namespaces/inkscape"
   xmlns:sodipodi="http://sodipodi.sourceforge.net/DTD/sodipodi-0.dtd"
   xmlns="http://www.w3.org/2000/svg"
   xmlns:svg="http://www.w3.org/2000/svg">
  <defs
     id="defs12" />
  <sodipodi:namedview
     id="namedview10"
     pagecolor="#ffffff"
     bordercolor="#000000"
     borderopacity="0.25"
     inkscape:showpageshadow="2"
     inkscape:pageopacity="0.0"
     inkscape:pagecheckerboard="0"
     inkscape:deskcolor="#d1d1d1"
     showgrid="false"
     inkscape:zoom="0.051618795"
     inkscape:cx="1288.2904"
     inkscape:cy="1782.2965"
     inkscape:window-width="787"
     inkscape:window-height="848"
     inkscape:window-x="0"
     inkscape:window-y="0"
     inkscape:window-maximized="1"
     inkscape:current-layer="g6" />
  <g
     fill-rule="evenodd"
     clip-rule="evenodd"
     id="g6"
     transform="translate(-2.8332342,-75.072196)">
    <path
       d="m 138.332,104.254 c 1.947,-10.229 13.99,-15.416 22.877,-14.922 v 0.001 c 3.434,0.194 6.395,1.236 8.115,3.166 l 0.012,-0.012 c 0.002,0.004 0.006,0.008 0.01,0.012 0.707,-0.748 1.414,-1.495 2.127,-2.237 0.416,-0.433 1.605,-0.294 2.66,-0.103 1.195,0.217 2.473,0.711 3.289,0.712 0.832,0.001 2.801,-0.604 4.672,-0.884 1.873,-0.281 3.646,-0.238 3.342,0.518 l -1.676,4.151 h 0.033 l -5.475,13.542 c -1.09,2.697 3.178,1.982 9.109,-4.291 1.016,0.666 1.479,0.793 2.494,3.311 -5.068,4.355 -9.904,7.482 -16.607,9.793 -6.025,2.076 -10.465,-0.932 -11.863,-5.945 -8.562,8.02 -20.494,7.934 -23.918,-1.113 -5.568,2.752 -12.223,5.676 -14.982,6.473 -2.164,0.627 -4.135,1.064 -5.984,1.076 -2.963,0.02 -6.197,-2.74 -5.176,-6.799 -4.91,2.172 -8.811,3.59 -14.437,5.529 -6.027,2.076 -9.494,-0.152 -10.892,-5.166 -8.565,8.021 -20.501,7.934 -23.922,-1.121 -3.363,1.619 -8.017,3.998 -12.3,5.676 -6.889,3.098 -14.962,2.477 -20.993,-3.838 l 1.972,-3.104 c 2.839,3.02 6.302,2.85 9.016,0.398 2.89,-2.611 4.724,-7.645 3.409,-11.77 -0.578,-1.814 -2.622,-3.205 -6.456,-2.952 l 1.188,-3.16 c 3.92,-0.14 6.985,-0.662 8.677,-3.127 2.376,-3.461 2.417,-8.794 -2.681,-8.65 -0.901,0.025 -1.961,0.218 -3.194,0.614 -0.884,2.613 -2.439,5.696 -3.691,8.937 -2.857,7.392 -6.057,15.6 -9.774,20.887 -4.429,6.301 -9.165,7.549 -12.981,7.291 -3.992,-0.27 -7.122,-1.477 -11.497,-5.424 -0.021,-1.674 0.146,-2.402 0.464,-4.48 1.53,2.156 6.807,4.451 8.517,1.943 3.826,-5.615 8.036,-16.445 11.177,-23.435 -2.839,0.942 -5.474,2.67 -9.196,5.251 0.044,-0.428 -1.242,-1.366 -1.192,-2.625 5.963,-6.876 16.522,-11.081 23.633,-12.584 10.868,-2.297 22.53,1.044 24.28,7.914 1.167,4.581 -4.236,8.875 -9.313,9.495 2.922,1.72 6.023,4.706 6.799,8.36 0.393,1.846 0.284,3.824 -0.3,5.719 1.708,-0.793 3.772,-1.834 5.132,-2.387 C 64.979,90.198 87.69,85.471 93.958,92.498 l 2.148,-2.237 c 0.416,-0.433 1.605,-0.294 2.66,-0.103 1.195,0.217 2.473,0.711 3.289,0.712 0.834,10e-4 2.801,-0.604 4.674,-0.884 1.871,-0.281 3.645,-0.238 3.34,0.518 l -7.139,17.693 c -1.613,3.996 10.238,-3.082 10.936,-3.467 l 5.094,-10.823 -5.244,0.072 0.941,-4.448 5.795,0.002 c 0.953,-1.265 1.234,-2.784 2.5,-3.736 1.715,-1.292 5.629,-0.597 7.428,-1.772 1.555,-1.016 2.75,-2.546 4.186,-4.902 1.242,-2.036 5.758,-1.514 4.895,0.424 l -4.041,10.105 5.105,-0.048 c 2.426,0.127 0.344,4.157 -2.416,4.188 l -4.217,0.077 -4.898,12.681 c -1.607,4.159 4.649,0.464 9.338,-2.296 z M 91.433,95.577 c -0.56,-1.925 -2.234,-2.441 -3.682,-2.287 -3.429,0.365 -6.742,4.171 -8.442,6.82 -2.724,4.244 -2.078,10.498 2.252,9.334 4.581,-1.233 10.685,-11.071 9.872,-13.867 z m 75.389,0 c -0.561,-1.925 -2.234,-2.441 -3.682,-2.287 -3.43,0.365 -6.742,4.171 -8.443,6.82 -2.723,4.244 -2.078,10.498 2.252,9.334 4.582,-1.233 10.686,-11.071 9.873,-13.867 z"
       fill="#cc2229"
       id="path4" />
  </g>
</svg>
