<?xml version="1.0" encoding="UTF-8" standalone="no"?>
<svg
   width="2426.4873"
   height="477.26141"
   viewBox="0 0 187.08799 36.798"
   version="1.1"
   id="svg12"
   sodipodi:docname="7.svg"
   inkscape:version="1.2.2 (b0a8486541, 2022-12-01)"
   xmlns:inkscape="http://www.inkscape.org/namespaces/inkscape"
   xmlns:sodipodi="http://sodipodi.sourceforge.net/DTD/sodipodi-0.dtd"
   xmlns="http://www.w3.org/2000/svg"
   xmlns:svg="http://www.w3.org/2000/svg">
  <defs
     id="defs16" />
  <sodipodi:namedview
     id="namedview14"
     pagecolor="#ffffff"
     bordercolor="#000000"
     borderopacity="0.25"
     inkscape:showpageshadow="2"
     inkscape:pageopacity="0.0"
     inkscape:pagecheckerboard="0"
     inkscape:deskcolor="#d1d1d1"
     showgrid="false"
     inkscape:zoom="0.20647518"
     inkscape:cx="1513.4991"
     inkscape:cy="154.98231"
     inkscape:window-width="787"
     inkscape:window-height="848"
     inkscape:window-x="0"
     inkscape:window-y="0"
     inkscape:window-maximized="1"
     inkscape:current-layer="g10" />
  <g
     fill-rule="evenodd"
     clip-rule="evenodd"
     id="g10"
     transform="translate(-2.834,-77.979)">
    <g
       id="g435">
      <path
         fill="#5c6d7c"
         d="m 75.169,77.979 -1.124,9.27 H 61.264 l -0.562,4.775 h 8.709 l -0.984,8.849 h -8.848 l -1.545,12.359 H 47.219 l 4.635,-35.253 z m 107.729,11.095 -2.949,6.461 c 0,0 -3.793,-2.669 -6.883,-2.669 -3.371,0 -2.527,3.372 -0.842,3.792 4.916,1.125 9.832,2.67 9.832,7.727 0,6.32 -5.619,10.111 -11.939,10.111 -8.006,-0.139 -13.625,-5.055 -13.625,-5.055 l 4.215,-6.883 c 4.213,5.617 11.236,5.338 11.799,3.09 0.701,-3.23 -6.041,-1.686 -9.553,-5.619 -3.65,-4.213 -1.545,-10.534 3.371,-12.781 4.496,-2.106 9.272,-1.966 16.574,1.826 z"
         id="path4" />
      <path
         d="m 149.471,86.687 -1.826,15.872 c -0.422,2.105 -2.389,3.791 -4.494,3.652 -2.389,0 -4.215,-1.266 -3.793,-3.652 l 1.967,-15.872 h -10.113 l -0.842,6.601 c -2.811,-5.618 -9.412,-7.444 -14.047,-7.444 -6.32,0 -13.344,2.949 -15.59,9.551 -2.107,-7.304 -9.692,-9.411 -14.749,-9.411 -7.725,0 -16.433,4.354 -16.433,14.607 0,9.691 7.164,13.766 15.169,13.766 7.585,0 13.624,-3.512 15.731,-9.832 1.686,6.74 8.006,9.691 14.607,9.691 6.32,0 11.518,-2.389 14.326,-6.742 0.984,4.775 5.197,7.303 12.922,7.303 10.254,0 14.607,-5.057 15.311,-11.518 l 2.105,-16.573 H 149.471 Z M 84.72,106.631 c -3.512,0 -5.478,-2.668 -5.478,-6.039 0,-3.652 2.388,-6.32 6.602,-6.32 2.387,0 5.337,1.264 5.618,5.057 v 0.701 c 0,3.792 -3.09,6.601 -6.742,6.601 z m 35.676,-2.527 c -1.266,1.404 -3.23,2.387 -5.197,2.387 -2.949,0 -4.775,-1.826 -5.338,-4.213 l -9.973,-1.826 v 0.141 l -8.005,-1.264 8.146,-0.703 h 0.141 l 0.984,-0.141 9.129,-0.982 c 0.842,-2.107 2.949,-3.371 5.898,-3.371 1.686,0 3.652,0.562 4.775,2.247 l 9.131,-0.983 -0.984,7.865 v 2.248 z M 44.69,113.232 46.938,95.254 C 48.202,85.563 35.561,82.051 29.24,89.917 l 0.562,-3.792 H 19.408 l -3.371,27.107 H 26.431 L 28.397,97.22 c 0.562,-4.354 8.708,-4.213 8.146,0 l -1.966,16.012 z M 17.723,78.259 13.509,113.232 H 2.834 L 7.048,78.259 Z"
         fill="#5c6d7c"
         id="path6" />
      <path
         d="m 185.428,86.406 h -0.844 v -4.073 h 1.545 c 0.982,0 1.686,0.421 1.686,1.264 0,0.843 -0.562,0.983 -0.982,1.124 l 0.982,1.686 h -0.982 l -0.984,-1.686 h -0.42 v 1.685 z m 0.842,-2.388 c 0.281,0 0.562,0 0.562,-0.421 0,-0.421 -0.422,-0.562 -0.844,-0.562 h -0.561 v 0.983 z m -0.141,4.214 c -2.107,0 -3.793,-1.405 -3.793,-3.792 0,-2.388 1.686,-3.792 3.793,-3.792 1.967,0 3.793,1.404 3.793,3.792 0,2.387 -1.826,3.792 -3.793,3.792 z m 0,-6.742 c -1.545,0 -2.809,1.264 -2.809,2.95 0,1.686 1.264,2.95 2.809,2.95 1.404,0 2.668,-1.264 2.668,-2.95 0,-1.686 -1.264,-2.95 -2.668,-2.95 z"
         id="path8" />
    </g>
  </g>
</svg>
