<svg width="1920" height="490" viewBox="0 0 1920 490" fill="none" xmlns="http://www.w3.org/2000/svg">
<g clip-path="url(#clip0_1_30)">
<path d="M1920 490V156C1858.79 133.993 1797.59 111.985 1732 119C1666.41 126.015 1596.44 162.051 1534.67 181C1472.9 199.949 1419.32 201.809 1360 191C1300.68 180.191 1235.6 156.713 1158.67 151C1081.74 145.287 992.957 157.34 933.333 167C873.71 176.66 843.243 183.928 786.667 178C730.091 172.072 647.406 152.947 574.667 149C501.927 145.053 439.134 156.283 378.667 165C318.199 173.717 260.057 179.919 197.333 178C134.61 176.081 67.3048 166.04 0 156V490L1920 490Z" fill="#1CCFBC" fill-opacity="0.53"/>
<path d="M1920 490V323C1852.04 309.778 1784.08 296.556 1721.33 299C1658.59 301.444 1601.05 319.554 1540 331C1478.95 342.446 1414.38 347.229 1341.33 335C1268.28 322.771 1186.75 293.531 1117.33 295C1047.92 296.469 990.635 328.646 934.667 335C878.698 341.354 824.049 321.885 754.667 326C685.284 330.115 601.169 357.814 548 361C494.831 364.186 472.608 342.858 418.667 331C364.725 319.142 279.064 316.755 204 317C128.936 317.245 64.4678 320.123 0 323V490L1920 490Z" fill="#1CCFBC"/>
</g>
<defs>
<clipPath id="clip0_1_30">
<rect width="1920" height="490" fill="white" transform="matrix(1 0 0 -1 0 490)"/>
</clipPath>
</defs>
</svg>
